<?xml version="1.0" standalone="no"?>
<!DOCTYPE svg PUBLIC "-//W3C//DTD SVG 20010904//EN"
 "http://www.w3.org/TR/2001/REC-SVG-20010904/DTD/svg10.dtd">
<svg version="1.0" xmlns="http://www.w3.org/2000/svg"
 width="547.000000pt" height="306.000000pt" viewBox="0 0 547.000000 306.000000"
 preserveAspectRatio="xMidYMid meet">
<metadata>
Created by potrace 1.16, written by Peter Selinger 2001-2019
</metadata>
<g transform="translate(0.000000,306.000000) scale(0.100000,-0.100000)"
fill="#000000" stroke="none">
<path d="M1240 3016 c-52 -23 -122 -52 -155 -65 -33 -13 -63 -27 -67 -30 -3
-3 -2 -40 3 -81 5 -41 11 -109 15 -150 3 -41 9 -102 14 -134 l7 -60 -117 -117
-118 -117 -129 13 c-70 8 -155 16 -188 18 -33 3 -67 8 -75 11 -8 3 -20 2 -26
-2 -13 -8 -146 -331 -142 -342 2 -5 75 -67 163 -139 l159 -130 1 -166 0 -166
-162 -132 c-90 -72 -163 -137 -163 -144 0 -7 4 -21 10 -31 5 -9 35 -78 66
-152 31 -74 60 -139 65 -144 8 -9 122 -1 347 25 l83 10 26 -33 c34 -42 129
-136 170 -170 l32 -26 -20 -188 c-11 -104 -19 -202 -17 -218 3 -27 12 -33 153
-92 83 -35 159 -64 171 -64 15 0 56 43 150 160 l129 161 100 -6 c55 -3 128 -1
163 3 l63 8 131 -160 c83 -103 138 -162 152 -164 11 -1 91 26 176 62 l155 64
-3 64 c-2 35 -10 128 -18 208 l-14 145 -133 132 c-72 73 -135 133 -140 133 -4
0 -50 -20 -102 -45 -131 -63 -256 -89 -395 -82 -118 7 -131 9 -226 38 -134 41
-244 110 -345 215 -163 172 -240 358 -240 584 1 271 117 510 330 679 65 51
209 122 296 146 85 23 270 31 358 15 92 -16 221 -63 282 -101 l48 -31 133 133
132 132 7 71 c3 39 10 112 15 161 5 50 11 114 12 144 l3 54 -164 68 c-91 38
-168 69 -172 69 -4 0 -68 -76 -144 -168 l-137 -168 -79 10 c-48 5 -110 5 -159
0 l-80 -10 -69 86 c-37 47 -99 122 -135 168 -37 45 -72 82 -79 81 -7 0 -55
-19 -107 -43z m155 -27 c22 -28 39 -55 37 -60 -1 -5 3 -8 9 -6 6 1 16 -7 22
-17 7 -11 21 -29 32 -41 11 -12 30 -35 43 -52 13 -17 37 -46 52 -63 l29 -32
172 -1 173 0 35 45 c20 25 51 63 69 84 18 22 58 71 88 109 65 81 72 87 99 79
46 -14 210 -88 213 -96 2 -4 8 -6 13 -3 4 3 22 -1 39 -10 36 -19 37 -32 14
-227 -8 -73 -16 -147 -18 -165 -2 -25 -24 -54 -118 -147 -63 -64 -121 -116
-127 -116 -7 0 -9 -4 -6 -10 10 -16 -2 -12 -58 19 -140 79 -360 123 -510 101
-107 -15 -201 -41 -265 -74 -29 -14 -52 -23 -52 -19 0 5 -4 3 -8 -2 -14 -20
-93 -66 -103 -60 -5 4 -8 2 -7 -3 4 -11 -80 -92 -95 -92 -6 0 -8 -3 -4 -6 3
-3 -8 -20 -25 -37 -38 -40 -95 -133 -129 -209 -14 -32 -29 -55 -34 -51 -4 5
-5 2 -1 -5 4 -7 2 -29 -5 -50 -45 -136 -47 -332 -5 -475 29 -99 70 -185 127
-268 21 -32 35 -60 31 -65 -4 -4 -1 -4 6 0 8 5 16 -1 21 -16 6 -13 10 -20 10
-17 1 4 16 -7 34 -25 72 -69 114 -99 191 -138 115 -58 176 -77 296 -93 185
-25 358 6 525 95 l49 27 131 -132 131 -131 18 -169 c9 -94 19 -182 21 -197 4
-24 -1 -28 -61 -54 -36 -15 -71 -27 -79 -27 -8 0 -15 -3 -15 -7 0 -5 -52 -28
-80 -35 -3 -1 -22 -9 -42 -18 -43 -19 -58 -21 -58 -7 0 5 -8 17 -19 27 -30 29
-121 141 -121 150 0 5 -9 14 -21 21 -12 7 -19 16 -16 19 3 3 -6 16 -21 28 -15
13 -34 34 -41 48 l-13 24 -138 -5 c-82 -3 -150 -1 -167 6 -33 11 -39 5 -153
-140 -25 -31 -51 -57 -58 -58 -7 0 -11 -4 -8 -8 3 -5 -9 -24 -25 -43 -17 -19
-37 -44 -45 -56 -19 -28 -35 -25 -165 32 -57 25 -113 50 -124 54 -11 5 -28 12
-37 15 -19 6 -26 60 -8 71 5 3 7 12 4 20 -3 8 2 90 11 181 l17 167 -34 25
c-48 36 -188 182 -188 196 0 9 -39 8 -162 -5 -198 -20 -287 -27 -270 -22 6 3
12 9 12 14 0 4 -7 6 -14 3 -13 -5 -39 37 -50 81 -2 6 -11 28 -21 50 -56 128
-63 150 -52 157 8 5 5 8 -6 8 -12 0 28 39 101 100 66 55 122 100 124 100 3 0
24 18 48 40 l43 40 -1 166 -1 166 -42 39 c-23 21 -45 39 -49 41 -7 3 -24 17
-151 121 -33 26 -59 52 -59 58 0 6 -4 7 -10 4 -15 -9 -12 19 6 62 34 79 43
100 76 183 32 78 37 85 62 84 14 -1 111 -9 214 -19 l188 -18 27 27 c15 14 31
35 37 47 6 11 16 16 22 13 6 -4 8 -3 5 3 -7 12 28 44 39 35 4 -4 4 -2 0 5 -4
7 15 29 48 55 l55 43 -5 65 c-2 36 -11 124 -19 195 -20 180 -21 172 23 191
112 49 268 113 277 113 6 1 28 -22 50 -50z"/>
<path d="M1473 2003 l-103 -4 0 -439 c0 -241 -3 -445 -6 -454 -5 -14 4 -16 65
-16 l71 0 0 223 c0 122 2 261 4 309 2 47 0 92 -5 100 -5 7 -9 -125 -9 -304 l0
-318 -55 0 -55 0 0 445 0 445 94 0 93 0 11 -62 11 -63 -6 60 c-3 33 -6 66 -6
73 0 6 -1 11 -1 10 -1 -1 -47 -4 -103 -5z"/>
<path d="M1864 2002 l-101 -3 -7 -60 c-4 -34 -5 -63 -3 -66 3 -2 8 23 12 56
l7 61 94 0 94 0 0 -445 0 -445 -60 0 -60 0 0 322 c0 177 -3 318 -7 315 -3 -4
-6 -151 -7 -327 l-1 -320 72 0 73 0 2 456 c2 251 1 457 -2 457 -3 1 -51 1
-106 -1z"/>
<path d="M3055 2001 c-3 -2 -5 -35 -5 -73 l0 -68 75 0 75 0 0 -385 0 -386 78
3 77 3 2 270 c1 149 2 321 2 383 l1 112 74 0 75 0 -2 71 -2 71 -223 2 c-123 1
-225 0 -227 -3z m435 -71 l0 -60 -75 0 -75 0 0 -385 0 -385 -60 0 -60 0 0 385
0 385 -77 0 -78 0 3 60 4 60 209 0 209 0 0 -60z"/>
<path d="M3654 1992 c-47 -23 -76 -56 -99 -115 -14 -37 -16 -86 -13 -347 l3
-305 27 -47 c44 -73 85 -93 194 -93 81 0 94 3 131 27 26 17 49 45 64 75 24 47
24 52 24 363 0 308 0 316 -23 357 -12 24 -41 55 -64 70 -35 24 -54 28 -122 31
-63 2 -90 -2 -122 -16z m214 -18 c29 -14 52 -32 52 -39 0 -8 6 -18 13 -22 31
-19 37 -75 37 -375 0 -284 -1 -300 -21 -344 -31 -65 -99 -104 -185 -104 -39 0
-103 16 -114 29 -3 3 -14 11 -25 17 -10 6 -29 31 -42 55 -22 43 -22 53 -23
344 0 170 4 316 10 336 31 111 179 162 298 103z"/>
<path d="M3754 1882 c-18 -2 -40 -12 -50 -24 -18 -19 -19 -39 -16 -312 4 -332
5 -336 72 -336 27 0 47 7 60 20 20 20 20 32 20 330 -1 170 -4 309 -8 308 -4
-1 -16 2 -27 8 -11 5 -34 8 -51 6z m56 -32 c19 -19 20 -33 20 -305 0 -272 -1
-286 -20 -305 -27 -27 -75 -26 -94 2 -14 19 -16 65 -16 305 0 270 1 284 20
303 11 11 31 20 45 20 14 0 34 -9 45 -20z"/>
<path d="M4064 1985 c-3 -12 -4 -217 -2 -456 l3 -434 78 0 79 0 -2 183 -1 182
35 0 c22 0 45 -9 63 -24 28 -24 28 -25 31 -163 4 -197 -3 -183 93 -183 74 0
80 2 73 18 -4 9 -10 89 -14 177 -6 166 -17 211 -56 233 -15 8 -14 13 8 43 38
51 48 92 48 192 0 114 -14 159 -61 202 -42 38 -66 42 -257 48 -108 3 -113 2
-118 -18z m301 -6 c52 -13 96 -57 113 -115 14 -49 16 -194 2 -194 -5 0 -7 -6
-4 -13 8 -22 -13 -66 -46 -96 l-31 -28 35 -34 c45 -43 55 -91 59 -267 l2 -132
-61 0 c-61 0 -62 0 -68 31 -3 17 -6 85 -6 150 0 65 -5 129 -11 142 -14 31 -48
47 -99 47 l-40 0 0 -185 0 -185 -65 0 -65 0 0 445 0 445 121 0 c66 0 140 -5
164 -11z"/>
<path d="M4210 1725 l0 -145 38 0 c58 0 82 10 97 41 20 39 20 180 0 219 -15
28 -19 30 -75 30 l-60 0 0 -145z m107 127 c20 -13 33 -60 33 -121 0 -105 -26
-141 -101 -141 l-29 0 0 135 0 135 43 0 c23 0 47 -4 54 -8z"/>
<path d="M4678 1990 c-42 -23 -80 -69 -97 -119 -14 -43 -15 -591 -1 -642 14
-52 49 -100 90 -123 28 -17 53 -21 127 -22 70 -1 97 -5 111 -17 23 -21 67 -37
103 -37 l29 0 0 69 c0 65 -2 70 -22 73 -25 3 -25 3 -8 86 7 33 10 155 8 321
l-3 267 -30 59 c-40 79 -89 105 -195 104 -55 0 -85 -5 -112 -19z m187 -1 c52
-15 110 -73 125 -127 10 -39 9 -575 -2 -667 -2 -25 1 -31 20 -33 20 -3 22 -9
22 -58 l0 -54 -39 0 c-30 0 -46 7 -69 30 -28 27 -32 28 -68 18 -94 -25 -191
10 -239 88 l-30 49 0 300 c0 326 5 364 59 414 49 46 140 62 221 40z"/>
<path d="M4735 1860 c-19 -21 -20 -38 -23 -298 -2 -153 0 -287 3 -299 9 -38
44 -63 79 -56 49 9 65 21 73 56 10 39 1 592 -9 603 -4 4 -29 9 -55 11 -40 4
-51 1 -68 -17z m101 -4 c18 -14 19 -29 19 -311 0 -282 -1 -297 -19 -311 -28
-20 -70 -17 -92 7 -18 19 -19 39 -18 305 1 259 3 286 19 304 21 23 63 26 91 6z"/>
<path d="M2580 1561 c0 -242 -3 -446 -6 -455 -5 -14 5 -16 75 -16 l81 0 0 186
0 187 46 -6 c74 -8 78 -17 85 -185 l6 -147 -1 147 c-1 174 -7 187 -95 196
l-51 5 0 -187 0 -186 -65 0 -65 0 0 445 0 444 138 4 137 3 -142 2 -143 2 0
-439z"/>
<path d="M2220 1860 c-19 -19 -20 -33 -20 -313 0 -281 1 -294 20 -315 28 -30
82 -30 110 0 19 21 20 34 20 313 0 279 -1 292 -20 313 -27 29 -83 29 -110 2z
m102 -7 c17 -15 18 -38 18 -306 0 -256 -2 -293 -17 -309 -20 -22 -70 -23 -95
-1 -17 15 -18 38 -18 306 0 256 2 293 17 309 20 22 70 23 95 1z"/>
</g>
</svg>
